<svg xmlns="http://www.w3.org/2000/svg" width="1440" height="700" viewBox="0 0 720 350">
  <rect width="720" height="350" fill="#0f172a" rx="8"/>

  <!-- TITLE BAR -->
  <rect width="720" height="48" fill="#1e293b" rx="8"/>
  <rect y="38" width="720" height="10" fill="#1e293b"/>
  <text x="360" y="30" font-family="sans-serif" font-size="16" font-weight="700" fill="#f1f5f9" text-anchor="middle">Audit-Driven Development: Three-Stage Workflow</text>

  <!-- STAGE 1 -->
  <rect x="20" y="60" width="200" height="110" fill="#1e293b" stroke="#334155" stroke-width="1" rx="6"/>
  <rect x="20" y="60" width="200" height="26" fill="#0c2e40" rx="6"/>
  <rect x="20" y="74" width="200" height="12" fill="#0c2e40"/>
  <text x="120" y="79" font-family="sans-serif" font-size="11" font-weight="700" fill="#06b6d4" text-anchor="middle">STAGE 1</text>
  <text x="120" y="107" font-family="sans-serif" font-size="14" font-weight="700" fill="#f1f5f9" text-anchor="middle">Diff Analysis</text>
  <text x="120" y="125" font-family="sans-serif" font-size="11" fill="#94a3b8" text-anchor="middle">Flag removed guards,</text>
  <text x="120" y="140" font-family="sans-serif" font-size="11" fill="#94a3b8" text-anchor="middle">deleted handlers,</text>
  <text x="120" y="155" font-family="sans-serif" font-size="11" fill="#94a3b8" text-anchor="middle">and altered patterns</text>

  <!-- ARROW 1 -->
  <line x1="220" y1="115" x2="252" y2="115" stroke="#64748b" stroke-width="1.5"/>
  <polygon points="252,110 252,120 260,115" fill="#64748b"/>

  <!-- STAGE 2 -->
  <rect x="260" y="60" width="200" height="110" fill="#1e293b" stroke="#334155" stroke-width="1" rx="6"/>
  <rect x="260" y="60" width="200" height="26" fill="#0c2e40" rx="6"/>
  <rect x="260" y="74" width="200" height="12" fill="#0c2e40"/>
  <text x="360" y="79" font-family="sans-serif" font-size="11" font-weight="700" fill="#06b6d4" text-anchor="middle">STAGE 2</text>
  <text x="360" y="107" font-family="sans-serif" font-size="14" font-weight="700" fill="#f1f5f9" text-anchor="middle">Impact Assessment</text>
  <text x="276" y="126" font-family="sans-serif" font-size="11" fill="#94a3b8">&#x00B7; Alters behavior?</text>
  <text x="276" y="141" font-family="sans-serif" font-size="11" fill="#94a3b8">&#x00B7; Covered by tests?</text>
  <text x="276" y="156" font-family="sans-serif" font-size="11" fill="#94a3b8">&#x00B7; Intentional change?</text>

  <!-- ARROW 2 -->
  <line x1="460" y1="115" x2="492" y2="115" stroke="#64748b" stroke-width="1.5"/>
  <polygon points="492,110 492,120 500,115" fill="#64748b"/>

  <!-- STAGE 3 -->
  <rect x="500" y="60" width="200" height="110" fill="#1e293b" stroke="#334155" stroke-width="1" rx="6"/>
  <rect x="500" y="60" width="200" height="26" fill="#0c2e40" rx="6"/>
  <rect x="500" y="74" width="200" height="12" fill="#0c2e40"/>
  <text x="600" y="79" font-family="sans-serif" font-size="11" font-weight="700" fill="#06b6d4" text-anchor="middle">STAGE 3</text>
  <text x="600" y="107" font-family="sans-serif" font-size="14" font-weight="700" fill="#f1f5f9" text-anchor="middle">Risk Mitigation</text>
  <text x="600" y="125" font-family="sans-serif" font-size="11" fill="#94a3b8" text-anchor="middle">Evaluate the flagged</text>
  <text x="600" y="140" font-family="sans-serif" font-size="11" fill="#94a3b8" text-anchor="middle">change and choose</text>
  <text x="600" y="155" font-family="sans-serif" font-size="11" fill="#94a3b8" text-anchor="middle">a course of action</text>

  <!-- BRANCH CONNECTOR -->
  <line x1="600" y1="170" x2="600" y2="204" stroke="#64748b" stroke-width="1.5"/>
  <line x1="120" y1="204" x2="600" y2="204" stroke="#64748b" stroke-width="1.5"/>
  <line x1="120" y1="204" x2="120" y2="208" stroke="#64748b" stroke-width="1.5"/>
  <polygon points="114,208 126,208 120,216" fill="#64748b"/>
  <line x1="360" y1="204" x2="360" y2="208" stroke="#64748b" stroke-width="1.5"/>
  <polygon points="354,208 366,208 360,216" fill="#64748b"/>
  <line x1="600" y1="204" x2="600" y2="208" stroke="#64748b" stroke-width="1.5"/>
  <polygon points="594,208 606,208 600,216" fill="#64748b"/>

  <!-- OUTCOME 1: Add an Assertion (green) -->
  <rect x="20" y="216" width="200" height="90" fill="#052e16" stroke="#166534" stroke-width="1" rx="6"/>
  <rect x="20" y="216" width="200" height="26" fill="#166534" rx="6"/>
  <rect x="20" y="230" width="200" height="12" fill="#166534"/>
  <text x="120" y="234" font-family="sans-serif" font-size="11" font-weight="700" fill="#22c55e" text-anchor="middle">ADD AN ASSERTION</text>
  <text x="120" y="260" font-family="sans-serif" font-size="11" fill="#dcfce7" text-anchor="middle">Write a test that encodes</text>
  <text x="120" y="275" font-family="sans-serif" font-size="11" fill="#dcfce7" text-anchor="middle">the expected behavior</text>
  <text x="120" y="295" font-family="sans-serif" font-size="10" fill="#4ade80" text-anchor="middle">Preferred outcome</text>

  <!-- OUTCOME 2: Document Accepted Risk (amber) -->
  <rect x="260" y="216" width="200" height="90" fill="#451a03" stroke="#78350f" stroke-width="1" rx="6"/>
  <rect x="260" y="216" width="200" height="26" fill="#78350f" rx="6"/>
  <rect x="260" y="230" width="200" height="12" fill="#78350f"/>
  <text x="360" y="234" font-family="sans-serif" font-size="11" font-weight="700" fill="#f59e0b" text-anchor="middle">DOCUMENT ACCEPTED RISK</text>
  <text x="360" y="260" font-family="sans-serif" font-size="11" fill="#fde68a" text-anchor="middle">Record the decision;</text>
  <text x="360" y="275" font-family="sans-serif" font-size="11" fill="#fde68a" text-anchor="middle">justify no assertion needed</text>
  <text x="360" y="295" font-family="sans-serif" font-size="10" fill="#fbbf24" text-anchor="middle">Intentional, accepted tradeoff</text>

  <!-- OUTCOME 3: Revert or Redesign (red) -->
  <rect x="500" y="216" width="200" height="90" fill="#450a0a" stroke="#991b1b" stroke-width="1" rx="6"/>
  <rect x="500" y="216" width="200" height="26" fill="#991b1b" rx="6"/>
  <rect x="500" y="230" width="200" height="12" fill="#991b1b"/>
  <text x="600" y="234" font-family="sans-serif" font-size="11" font-weight="700" fill="#ef4444" text-anchor="middle">REVERT OR REDESIGN</text>
  <text x="600" y="260" font-family="sans-serif" font-size="11" fill="#fee2e2" text-anchor="middle">Roll back or rethink</text>
  <text x="600" y="275" font-family="sans-serif" font-size="11" fill="#fee2e2" text-anchor="middle">the change entirely</text>
  <text x="600" y="295" font-family="sans-serif" font-size="10" fill="#f87171" text-anchor="middle">Unintended consequence</text>

  <!-- FOOTER -->
  <line x1="16" y1="322" x2="704" y2="322" stroke="#334155" stroke-width="0.75"/>
  <text x="360" y="337" font-family="sans-serif" font-size="11" fill="#64748b" text-anchor="middle">Every flagged change resolves to exactly one of the three outcomes.</text>
</svg>