<svg xmlns="http://www.w3.org/2000/svg" viewBox="0 0 100 124" fill="none">
  <defs>
    <linearGradient id="border-grad" x1="0" y1="0" x2="100" y2="124" gradientUnits="userSpaceOnUse">
      <stop offset="0%" stop-color="#6BFAFF"/>
      <stop offset="50%" stop-color="#00AAFF"/>
      <stop offset="100%" stop-color="#0044CC"/>
    </linearGradient>
  </defs>
  <!-- Outer shield (gradient border) -->
  <path d="M50 3 L97 16 L97 68 C97 99 50 121 50 121 C50 121 3 99 3 68 L3 16 Z" fill="url(#border-grad)"/>
  <!-- Inner shield (dark background) -->
  <path d="M50 12 L88 23 L88 68 C88 94 50 113 50 113 C50 113 12 94 12 68 L12 23 Z" fill="#091827"/>
  <!-- Top bar (wide) -->
  <rect x="23" y="40" width="54" height="9" rx="2" fill="#00E8FF"/>
  <!-- Row 2: two bars -->
  <rect x="23" y="55" width="30" height="8" rx="2" fill="#00E8FF"/>
  <rect x="58" y="55" width="20" height="8" rx="2" fill="#00C8FF"/>
  <!-- Row 3: medium bar -->
  <rect x="23" y="69" width="44" height="8" rx="2" fill="#00E0FF"/>
  <!-- Bottom two squares -->
  <rect x="23" y="84" width="9" height="9" rx="2" fill="#00D8FF"/>
  <rect x="36" y="84" width="9" height="9" rx="2" fill="#0080EE"/>
</svg>